<svg width="580" height="86" viewBox="0 0 580 86" fill="none" xmlns="http://www.w3.org/2000/svg">
<path d="M54.3 37.7L53.4297 37.2074L53.4266 37.2129L54.3 37.7ZM45.4 46.1L45.8651 46.9853L45.8706 46.9824L45.4 46.1ZM21.2 49.2V48.2H20.2V49.2H21.2ZM21.2 73V74H22.2V73H21.2ZM1.6 73H0.6V74H1.6V73ZM1.6 2.5V1.5H0.6V2.5H1.6ZM45.3 5.5L44.8467 6.3914L44.8528 6.39443L45.3 5.5ZM54.3 13.8L53.4297 14.2926L53.4297 14.2926L54.3 13.8ZM21.2 18.3V17.3H20.2V18.3H21.2ZM21.2 33.6H20.2V34.6H21.2V33.6ZM56.3 26C56.3 30.1031 55.3403 33.8321 53.4297 37.2074L55.1703 38.1926C57.2597 34.5013 58.3 30.4302 58.3 26H56.3ZM53.4266 37.2129C51.5996 40.489 48.7847 43.1615 44.9294 45.2176L45.8706 46.9824C50.0153 44.7718 53.1337 41.8443 55.1734 38.1871L53.4266 37.2129ZM44.9349 45.2148C41.1806 47.1873 36.5169 48.2 30.9 48.2V50.2C36.7497 50.2 41.7527 49.146 45.8651 46.9852L44.9349 45.2148ZM30.9 48.2H21.2V50.2H30.9V48.2ZM20.2 49.2V73H22.2V49.2H20.2ZM21.2 72H1.6V74H21.2V72ZM2.6 73V2.5H0.6V73H2.6ZM1.6 3.5H30.9V1.5H1.6V3.5ZM30.9 3.5C36.4525 3.5 41.088 4.48015 44.8468 6.39138L45.7533 4.60861C41.6453 2.51984 36.6808 1.5 30.9 1.5V3.5ZM44.8528 6.39443C48.6938 8.31492 51.5375 10.9497 53.4297 14.2926L55.1703 13.3074C53.0625 9.58361 49.9062 6.68508 45.7472 4.60557L44.8528 6.39443ZM53.4297 14.2926C55.3339 17.6566 56.3 21.5493 56.3 26H58.3C58.3 21.2507 57.2661 17.0101 55.1703 13.3074L53.4297 14.2926ZM29 34.6C31.9001 34.6 34.2616 33.938 35.9003 32.4375C37.5557 30.9218 38.3 28.7113 38.3 26H36.3C36.3 28.3554 35.661 29.9449 34.5497 30.9625C33.4217 31.9953 31.6333 32.6 29 32.6V34.6ZM38.3 26C38.3 23.2591 37.5579 21.0252 35.9051 19.4919C34.2665 17.9717 31.903 17.3 29 17.3V19.3C31.6304 19.3 33.4168 19.9116 34.5449 20.9581C35.6588 21.9915 36.3 23.6075 36.3 26H38.3ZM29 17.3H21.2V19.3H29V17.3ZM20.2 18.3V33.6H22.2V18.3H20.2ZM21.2 34.6H29V32.6H21.2V34.6ZM89.7742 58H88.7742V59H89.7742V58ZM111.674 58H112.674V57H111.674V58ZM111.674 73V74H112.674V73H111.674ZM70.1742 73H69.1742V74H70.1742V73ZM70.1742 2.5V1.5H69.1742V2.5H70.1742ZM89.7742 2.5H90.7742V1.5H89.7742V2.5ZM89.7742 59H111.674V57H89.7742V59ZM110.674 58V73H112.674V58H110.674ZM111.674 72H70.1742V74H111.674V72ZM71.1742 73V2.5H69.1742V73H71.1742ZM70.1742 3.5H89.7742V1.5H70.1742V3.5ZM88.7742 2.5V58H90.7742V2.5H88.7742ZM168.895 61.5L169.845 61.1863L169.618 60.5H168.895V61.5ZM143.895 61.5V60.5H143.173L142.946 61.1863L143.895 61.5ZM140.095 73V74H140.818L141.045 73.3137L140.095 73ZM119.495 73L118.556 72.6575L118.066 74H119.495V73ZM145.195 2.5V1.5H144.495L144.256 2.1575L145.195 2.5ZM167.795 2.5L168.735 2.15868L168.496 1.5H167.795V2.5ZM193.395 73V74H194.822L194.335 72.6587L193.395 73ZM172.695 73L171.746 73.3137L171.973 74H172.695V73ZM163.995 46.5V47.5H165.383L164.944 46.1838L163.995 46.5ZM156.395 23.7L157.344 23.3838L156.389 20.5189L155.445 23.3875L156.395 23.7ZM148.895 46.5L147.945 46.1875L147.514 47.5H148.895V46.5ZM168.895 60.5H143.895V62.5H168.895V60.5ZM142.946 61.1863L139.146 72.6863L141.045 73.3137L144.845 61.8137L142.946 61.1863ZM140.095 72H119.495V74H140.095V72ZM120.435 73.3425L146.135 2.84249L144.256 2.1575L118.556 72.6575L120.435 73.3425ZM145.195 3.5H167.795V1.5H145.195V3.5ZM166.855 2.84131L192.455 73.3413L194.335 72.6587L168.735 2.15868L166.855 2.84131ZM193.395 72H172.695V74H193.395V72ZM173.645 72.6863L169.845 61.1863L167.946 61.8137L171.746 73.3137L173.645 72.6863ZM164.944 46.1838L157.344 23.3838L155.447 24.0162L163.047 46.8162L164.944 46.1838ZM155.445 23.3875L147.945 46.1875L149.845 46.8125L157.345 24.0125L155.445 23.3875ZM148.895 47.5H163.995V45.5H148.895V47.5ZM253.084 84.8L252.252 85.3547L252.548 85.8H253.084V84.8ZM245.284 73.1L246.116 72.5453L245.751 71.9986L245.105 72.1161L245.284 73.1ZM220.384 69.1L219.891 69.9702L219.899 69.9747L220.384 69.1ZM207.184 56.2L206.318 56.7006L206.322 56.7068L206.325 56.713L207.184 56.2ZM207.184 18.9L206.322 18.3916L206.321 18.3948L207.184 18.9ZM220.384 6L220.868 6.87465L220.384 6ZM256.784 6L256.294 6.87215L256.299 6.87465L256.784 6ZM269.884 18.9L269.018 19.4006L269.021 19.4052L269.884 18.9ZM271.184 53.6L272.085 54.0323L272.088 54.0276L271.184 53.6ZM261.584 65.8L260.957 65.0204L260.187 65.6393L260.797 66.4171L261.584 65.8ZM276.484 84.8V85.8H278.539L277.27 84.1829L276.484 84.8ZM226.684 50.7L225.932 51.3596L225.939 51.3672L226.684 50.7ZM250.384 50.6L249.639 49.9318L249.632 49.9404L250.384 50.6ZM250.384 24.3L249.632 24.9596L249.639 24.9677L249.646 24.9757L250.384 24.3ZM226.684 24.3L227.428 24.9673L227.435 24.9596L226.684 24.3ZM253.916 84.2453L246.116 72.5453L244.452 73.6547L252.252 85.3547L253.916 84.2453ZM245.105 72.1161C242.965 72.5053 240.791 72.7 238.584 72.7V74.7C240.909 74.7 243.203 74.4947 245.462 74.0839L245.105 72.1161ZM238.584 72.7C232.146 72.7 226.247 71.2062 220.868 68.2253L219.899 69.9747C225.587 73.1271 231.822 74.7 238.584 74.7V72.7ZM220.876 68.2298C215.494 65.182 211.22 61.0052 208.042 55.687L206.325 56.713C209.681 62.3281 214.206 66.7513 219.891 69.9702L220.876 68.2298ZM208.049 55.6994C204.945 50.331 203.384 44.2729 203.384 37.5H201.384C201.384 44.5938 203.023 51.0024 206.318 56.7006L208.049 55.6994ZM203.384 37.5C203.384 30.7269 204.945 24.7043 208.047 19.4052L206.321 18.3948C203.023 24.029 201.384 30.4064 201.384 37.5H203.384ZM208.045 19.4084C211.222 14.026 215.493 9.85353 220.868 6.87465L219.899 5.12534C214.207 8.2798 209.678 12.7074 206.322 18.3916L208.045 19.4084ZM220.868 6.87465C226.247 3.89381 232.146 2.4 238.584 2.4V0.399998C231.822 0.399998 225.587 1.97285 219.899 5.12534L220.868 6.87465ZM238.584 2.4C245.09 2.4 250.987 3.89465 256.294 6.87214L257.273 5.12786C251.647 1.97201 245.41 0.399998 238.584 0.399998V2.4ZM256.299 6.87465C261.672 9.85251 265.908 14.0225 269.018 19.4006L270.749 18.3994C267.46 12.7109 262.962 8.28082 257.268 5.12534L256.299 6.87465ZM269.021 19.4052C272.123 24.7043 273.684 30.7269 273.684 37.5H275.684C275.684 30.4064 274.045 24.029 270.747 18.3948L269.021 19.4052ZM273.684 37.5C273.684 43.1616 272.546 48.3811 270.28 53.1724L272.088 54.0276C274.488 48.9522 275.684 43.4384 275.684 37.5H273.684ZM270.282 53.1677C268.011 57.9042 264.903 61.8507 260.957 65.0204L262.21 66.5796C266.397 63.216 269.69 59.0291 272.085 54.0323L270.282 53.1677ZM260.797 66.4171L275.697 85.4171L277.27 84.1829L262.37 65.1829L260.797 66.4171ZM276.484 83.8H253.084V85.8H276.484V83.8ZM221.384 37.5C221.384 43.2078 222.865 47.865 225.932 51.3596L227.435 50.0404C224.769 47.0017 223.384 42.8589 223.384 37.5H221.384ZM225.939 51.3672C229.029 54.8173 233.288 56.5 238.584 56.5V54.5C233.745 54.5 230.071 52.9827 227.428 50.0328L225.939 51.3672ZM238.584 56.5C243.823 56.5 248.049 54.7762 251.135 51.2596L249.632 49.9404C246.985 52.9571 243.344 54.5 238.584 54.5V56.5ZM251.128 51.2681C254.263 47.776 255.784 43.1504 255.784 37.5H253.784C253.784 42.7829 252.37 46.8907 249.64 49.9319L251.128 51.2681ZM255.784 37.5C255.784 31.7247 254.268 27.0573 251.121 23.6243L249.646 24.9757C252.366 27.9427 253.784 32.0753 253.784 37.5H255.784ZM251.135 23.6404C248.049 20.1238 243.823 18.4 238.584 18.4V20.4C243.344 20.4 246.985 21.9429 249.632 24.9596L251.135 23.6404ZM238.584 18.4C233.282 18.4 229.021 20.1207 225.932 23.6404L227.435 24.9596C230.08 21.9459 233.752 20.4 238.584 20.4V18.4ZM225.939 23.6327C222.863 27.0661 221.384 31.7303 221.384 37.5H223.384C223.384 32.0697 224.771 27.9339 227.428 24.9672L225.939 23.6327ZM307.792 2.5H308.792V1.5H307.792V2.5ZM310.392 52.2L309.626 52.8426L309.632 52.8498L309.638 52.8568L310.392 52.2ZM326.592 52.2L325.84 51.5415L325.838 51.5432L326.592 52.2ZM329.392 2.5V1.5H328.392V2.5H329.392ZM348.992 2.5H349.992V1.5H348.992V2.5ZM344.892 60L345.749 60.5164L345.752 60.5108L344.892 60ZM333.692 70.3L334.129 71.1995L334.134 71.1969L333.692 70.3ZM302.692 70.3L302.229 71.1863L302.237 71.1905L302.245 71.1944L302.692 70.3ZM292.092 60L291.219 60.4879L291.225 60.4975L292.092 60ZM288.292 2.5V1.5H287.292V2.5H288.292ZM306.792 2.5V43.4H308.792V2.5H306.792ZM306.792 43.4C306.792 47.3402 307.69 50.5346 309.626 52.8426L311.158 51.5574C309.628 49.7321 308.792 47.0598 308.792 43.4H306.792ZM309.638 52.8568C311.683 55.2049 314.699 56.3 318.492 56.3V54.3C315.085 54.3 312.701 53.3284 311.146 51.5432L309.638 52.8568ZM318.492 56.3C322.285 56.3 325.301 55.2049 327.346 52.8568L325.838 51.5432C324.283 53.3284 321.899 54.3 318.492 54.3V56.3ZM327.345 52.8585C329.416 50.4916 330.392 47.2974 330.392 43.4H328.392C328.392 46.9692 327.502 49.6417 325.84 51.5415L327.345 52.8585ZM330.392 43.4V2.5H328.392V43.4H330.392ZM329.392 3.5H348.992V1.5H329.392V3.5ZM347.992 2.5V43.4H349.992V2.5H347.992ZM347.992 43.4C347.992 49.7244 346.657 55.0731 344.033 59.4892L345.752 60.5108C348.594 55.7269 349.992 50.0089 349.992 43.4H347.992ZM344.036 59.4837C341.401 63.8536 337.811 67.1546 333.25 69.4031L334.134 71.1969C339.04 68.7787 342.917 65.213 345.749 60.5163L344.036 59.4837ZM333.255 69.4005C328.739 71.5943 323.69 72.7 318.092 72.7V74.7C323.961 74.7 329.312 73.539 334.129 71.1995L333.255 69.4005ZM318.092 72.7C312.494 72.7 307.517 71.5942 303.139 69.4056L302.245 71.1944C306.934 73.5391 312.224 74.7 318.092 74.7V72.7ZM303.155 69.4137C298.864 67.1721 295.468 63.8767 292.96 59.5025L291.225 60.4975C293.916 65.1899 297.587 68.7613 302.229 71.1863L303.155 69.4137ZM292.965 59.5122C290.534 55.1617 289.292 49.8059 289.292 43.4H287.292C287.292 50.0608 288.584 55.7717 291.219 60.4878L292.965 59.5122ZM289.292 43.4V2.5H287.292V43.4H289.292ZM288.292 3.5H307.792V1.5H288.292V3.5ZM384.384 2.5H385.384V1.5H384.384V2.5ZM384.384 73V74H385.384V73H384.384ZM364.784 73H363.784V74H364.784V73ZM364.784 2.5V1.5H363.784V2.5H364.784ZM383.384 2.5V73H385.384V2.5H383.384ZM384.384 72H364.784V74H384.384V72ZM365.784 73V2.5H363.784V73H365.784ZM364.784 3.5H384.384V1.5H364.784V3.5ZM406.945 67.9L406.347 68.7012L406.354 68.7061L406.945 67.9ZM398.445 51.1V50.1H397.389L397.447 51.155L398.445 51.1ZM419.345 51.1L420.342 51.0192L420.268 50.1H419.345V51.1ZM421.545 56.5L420.879 57.2452L420.879 57.2452L421.545 56.5ZM430.845 56.9L431.453 57.6944L431.459 57.6894L430.845 56.9ZM429.745 48.3L430.251 47.4373L430.251 47.4373L429.745 48.3ZM420.345 44.5L420.029 45.4487L420.038 45.4516L420.345 44.5ZM409.145 40.1L408.681 40.9858L408.694 40.9924L408.706 40.9986L409.145 40.1ZM401.745 33.8L400.941 34.3939L400.949 34.4047L400.957 34.4153L401.745 33.8ZM402.045 11.3L402.861 11.878L402.867 11.8701L402.045 11.3ZM411.445 3.9L411.061 2.97692L411.061 2.97692L411.445 3.9ZM444.645 7.19999L444.023 7.98295L444.029 7.98763L444.035 7.99222L444.645 7.19999ZM452.545 23.3V24.3H453.595L453.544 23.252L452.545 23.3ZM431.245 23.3L430.246 23.3312L430.276 24.3H431.245V23.3ZM429.245 18.5L428.581 19.2474L428.591 19.2563L428.601 19.2649L429.245 18.5ZM420.945 18.2L421.626 18.9328L421.626 18.9328L420.945 18.2ZM421.045 25.4L420.338 26.1071L420.362 26.1306L420.387 26.1526L421.045 25.4ZM424.945 27.9L424.514 28.8021L424.53 28.8099L424.547 28.8171L424.945 27.9ZM431.745 30.5L431.41 31.4423L431.421 31.4458L431.745 30.5ZM442.745 35.1L442.274 35.9818L442.286 35.9883L442.298 35.9944L442.745 35.1ZM450.245 41.4L449.448 42.0031L449.456 42.014L449.464 42.0247L450.245 41.4ZM450.245 62.9L449.403 62.3609L449.399 62.367L449.395 62.3731L450.245 62.9ZM441.145 70.8L440.71 69.8996L440.704 69.9026L441.145 70.8ZM427.145 72.7C419.103 72.7 412.593 70.8056 407.537 67.0939L406.354 68.7061C411.831 72.7277 418.787 74.7 427.145 74.7V72.7ZM407.544 67.0988C402.542 63.3631 399.829 58.0518 399.444 51.045L397.447 51.155C397.861 58.6816 400.816 64.5703 406.347 68.7012L407.544 67.0988ZM398.445 52.1H419.345V50.1H398.445V52.1ZM418.349 51.1808C418.56 53.7874 419.349 55.8767 420.879 57.2452L422.212 55.7548C421.208 54.8566 420.531 53.3459 420.342 51.0192L418.349 51.1808ZM420.879 57.2452C422.36 58.5709 424.245 59.2 426.445 59.2V57.2C424.645 57.2 423.264 56.6957 422.212 55.7548L420.879 57.2452ZM426.445 59.2C428.407 59.2 430.104 58.7259 431.453 57.6944L430.238 56.1056C429.32 56.8074 428.084 57.2 426.445 57.2V59.2ZM431.459 57.6894C432.917 56.5553 433.645 54.9898 433.645 53.1H431.645C431.645 54.4102 431.173 55.378 430.231 56.1106L431.459 57.6894ZM433.645 53.1C433.645 50.6435 432.459 48.7317 430.251 47.4373L429.24 49.1627C430.898 50.1349 431.645 51.4231 431.645 53.1H433.645ZM430.251 47.4373C428.219 46.2463 425 44.9528 420.653 43.5484L420.038 45.4516C424.358 46.8472 427.405 48.087 429.24 49.1627L430.251 47.4373ZM420.662 43.5513C416.084 42.0256 412.396 40.5748 409.584 39.2014L408.706 40.9986C411.628 42.4252 415.406 43.9078 420.029 45.4487L420.662 43.5513ZM409.609 39.2142C406.947 37.8197 404.588 35.8168 402.534 33.1847L400.957 34.4153C403.169 37.2499 405.743 39.4469 408.681 40.9858L409.609 39.2142ZM402.55 33.2061C400.642 30.6214 399.645 27.2138 399.645 22.9H397.645C397.645 27.5196 398.715 31.3786 400.941 34.3939L402.55 33.2061ZM399.645 22.9C399.645 18.5403 400.732 14.8837 402.861 11.878L401.229 10.722C398.825 14.1163 397.645 18.193 397.645 22.9H399.645ZM402.867 11.8701C405.015 8.77447 407.99 6.42311 411.83 4.82307L411.061 2.97692C406.901 4.71022 403.609 7.2922 401.224 10.7299L402.867 11.8701ZM411.83 4.82307C415.689 3.21503 420.089 2.4 425.045 2.4V0.399998C419.869 0.399998 415.201 1.25163 411.061 2.97692L411.83 4.82307ZM425.045 2.4C433.092 2.4 439.383 4.29607 444.023 7.98295L445.267 6.41704C440.174 2.37059 433.399 0.399998 425.045 0.399998V2.4ZM444.035 7.99222C448.708 11.5913 451.225 16.67 451.546 23.348L453.544 23.252C453.199 16.0634 450.45 10.4087 445.256 6.40777L444.035 7.99222ZM452.545 22.3H431.245V24.3H452.545V22.3ZM432.245 23.2688C432.172 20.9388 431.432 19.0343 429.889 17.7351L428.601 19.2649C429.592 20.099 430.185 21.3946 430.246 23.3312L432.245 23.2688ZM429.91 17.7526C428.491 16.4914 426.671 15.9 424.545 15.9V17.9C426.286 17.9 427.6 18.3753 428.581 19.2474L429.91 17.7526ZM424.545 15.9C422.867 15.9 421.411 16.4028 420.265 17.4672L421.626 18.9328C422.346 18.2639 423.29 17.9 424.545 17.9V15.9ZM420.265 17.4672C419.078 18.5693 418.545 20.098 418.545 21.9H420.545C420.545 20.502 420.946 19.5641 421.626 18.9328L420.265 17.4672ZM418.545 21.9C418.545 23.5159 419.163 24.9322 420.338 26.1071L421.752 24.6929C420.927 23.8678 420.545 22.9508 420.545 21.9H418.545ZM420.387 26.1526C421.534 27.1564 422.914 28.0371 424.514 28.8021L425.377 26.9979C423.91 26.2963 422.69 25.5103 421.704 24.6474L420.387 26.1526ZM424.547 28.8171C426.112 29.4976 428.404 30.3734 431.41 31.4422L432.08 29.5578C429.086 28.4933 426.845 27.6357 425.344 26.9829L424.547 28.8171ZM431.421 31.4458C435.857 32.9688 439.47 34.4822 442.274 35.9818L443.217 34.2182C440.287 32.6511 436.567 31.0978 432.07 29.5542L431.421 31.4458ZM442.298 35.9944C445.088 37.3891 447.47 39.3869 449.448 42.0031L451.043 40.7969C448.888 37.9464 446.27 35.7442 443.193 34.2056L442.298 35.9944ZM449.464 42.0247C451.428 44.479 452.445 47.6444 452.445 51.6H454.445C454.445 47.289 453.329 43.6543 451.026 40.7753L449.464 42.0247ZM452.445 51.6C452.445 55.6212 451.427 59.1986 449.403 62.3609L451.088 63.4391C453.33 59.9348 454.445 55.9788 454.445 51.6H452.445ZM449.395 62.3731C447.442 65.5244 444.563 68.0376 440.71 69.8997L441.58 71.7003C445.728 69.6957 448.916 66.9423 451.095 63.4269L449.395 62.3731ZM440.704 69.9026C436.936 71.7546 432.427 72.7 427.145 72.7V74.7C432.663 74.7 437.488 73.7121 441.586 71.6974L440.704 69.9026ZM520.657 2.5H521.657V1.5H520.657V2.5ZM520.657 18.1V19.1H521.657V18.1H520.657ZM501.857 18.1V17.1H500.857V18.1H501.857ZM501.857 73V74H502.857V73H501.857ZM482.257 73H481.257V74H482.257V73ZM482.257 18.1H483.257V17.1H482.257V18.1ZM463.657 18.1H462.657V19.1H463.657V18.1ZM463.657 2.5V1.5H462.657V2.5H463.657ZM519.657 2.5V18.1H521.657V2.5H519.657ZM520.657 17.1H501.857V19.1H520.657V17.1ZM500.857 18.1V73H502.857V18.1H500.857ZM501.857 72H482.257V74H501.857V72ZM483.257 73V18.1H481.257V73H483.257ZM482.257 17.1H463.657V19.1H482.257V17.1ZM464.657 18.1V2.5H462.657V18.1H464.657ZM463.657 3.5H520.657V1.5H463.657V3.5ZM552.509 18.2V17.2H551.509V18.2H552.509ZM552.509 29.7H551.509V30.7H552.509V29.7ZM575.009 29.7H576.009V28.7H575.009V29.7ZM575.009 44.6V45.6H576.009V44.6H575.009ZM552.509 44.6V43.6H551.509V44.6H552.509ZM552.509 57.3H551.509V58.3H552.509V57.3ZM578.009 57.3H579.009V56.3H578.009V57.3ZM578.009 73V74H579.009V73H578.009ZM532.909 73H531.909V74H532.909V73ZM532.909 2.5V1.5H531.909V2.5H532.909ZM578.009 2.5H579.009V1.5H578.009V2.5ZM578.009 18.2V19.2H579.009V18.2H578.009ZM551.509 18.2V29.7H553.509V18.2H551.509ZM552.509 30.7H575.009V28.7H552.509V30.7ZM574.009 29.7V44.6H576.009V29.7H574.009ZM575.009 43.6H552.509V45.6H575.009V43.6ZM551.509 44.6V57.3H553.509V44.6H551.509ZM552.509 58.3H578.009V56.3H552.509V58.3ZM577.009 57.3V73H579.009V57.3H577.009ZM578.009 72H532.909V74H578.009V72ZM533.909 73V2.5H531.909V73H533.909ZM532.909 3.5H578.009V1.5H532.909V3.5ZM577.009 2.5V18.2H579.009V2.5H577.009ZM578.009 17.2H552.509V19.2H578.009V17.2Z" fill="#C4C4C4" fill-opacity="0.45"/>
</svg>
