<svg width="35" height="35" viewBox="0 0 35 35" fill="none" xmlns="http://www.w3.org/2000/svg">
<path d="M28.1359 20.4416C28.5521 20.0047 28.5357 19.3118 28.0982 18.8956C27.6607 18.4789 26.9683 18.4964 26.5516 18.9334L18.594 27.3235V5.46875C18.594 4.865 18.104 4.375 17.5003 4.375C16.8965 4.375 16.4065 4.865 16.4065 5.46875V27.2885L8.44843 18.9334C8.03171 18.4959 7.33936 18.4789 6.90186 18.8956C6.67655 19.1105 6.5628 19.3988 6.5628 19.6875C6.5628 19.9587 6.66288 20.23 6.86467 20.4416L15.9537 29.9841C16.3666 30.3975 16.9157 30.625 17.5003 30.625C18.0849 30.625 18.634 30.3975 19.0655 29.9649L28.1359 20.4416Z" fill="white"/>
</svg>
