<svg width="19" height="19" viewBox="0 0 19 19" fill="none" xmlns="http://www.w3.org/2000/svg">
<g clip-path="url(#clip0)">
<path d="M18.5325 8.37265L10.6292 0.46928C10.0058 -0.154067 8.99483 -0.154067 8.37148 0.46928C7.74814 1.09263 7.74814 2.1036 8.37148 2.72695L15.1453 9.50069L8.37148 16.2744C7.74814 16.8977 7.74814 17.9087 8.37148 18.5321C8.99483 19.1554 10.0058 19.1554 10.6292 18.5321L18.5325 10.6287C19.1558 10.0069 19.1558 8.996 18.5325 8.37265ZM9.02963 7.89406L2.75506 1.28091C2.12457 0.61724 1.10335 0.61724 0.472866 1.28091C-0.157622 1.94459 -0.157622 3.02122 0.472866 3.6857L5.60676 9.09646L0.472866 14.5072C-0.157622 15.1709 -0.157622 16.2483 0.472866 16.912C1.10335 17.5757 2.12457 17.5757 2.75506 16.912L9.02963 10.2988C9.66012 9.63517 9.66012 8.55854 9.02963 7.89406Z" fill="white"/>
</g>
<defs>
<clipPath id="clip0">
<rect width="19" height="19" fill="white"/>
</clipPath>
</defs>
</svg>
