<svg width="82" height="82" viewBox="0 0 82 82" fill="none" xmlns="http://www.w3.org/2000/svg">
<g clip-path="url(#clip0)">
<path d="M43.1804 18.6006C42.0855 17.1788 40.0453 16.9135 38.623 18.0085L27.1333 26.8511C25.1878 23.5984 24.0536 19.9252 23.828 16.1419C22.797 5.83241 21.8359 0 14.0834 0H1.08356C0.485 0 0 0.485001 0 1.08356V63.9164C0 64.515 0.485 65 1.08356 65H44.4167C44.9459 65 45.3971 64.6181 45.4849 64.0965C45.7973 62.0102 45.9724 59.906 46.0086 57.7969L47.1556 59.2871C47.6793 59.9725 48.4559 60.4198 49.3114 60.5289C49.4527 60.5472 49.595 60.5561 49.7374 60.5566C50.4529 60.5566 51.1482 60.3186 51.7141 59.8807L63.7324 50.63C65.1532 49.534 65.418 47.4949 64.3251 46.0721L43.1804 18.6006ZM43.474 62.8334H40.3542C40.8293 60.697 41.1016 58.5209 41.1665 56.3335C41.1665 55.7349 40.6815 55.2499 40.0835 55.2499C39.4849 55.2499 38.9999 55.7349 38.9999 56.3335C38.921 58.5224 38.6319 60.699 38.1375 62.8334H2.16663V2.16663H14.0834C19.4853 2.16663 20.5555 5.1902 21.6718 16.3591C22.187 21.47 23.4253 25.2488 25.6371 28.5064C25.1417 29.5945 25.2855 30.8665 26.011 31.8166L43.8211 54.9543C43.9099 57.5856 43.7939 60.2199 43.474 62.8334ZM62.4099 48.9141L50.3924 58.1644C49.9179 58.5289 49.238 58.4401 48.873 57.966L27.7283 30.494C27.3634 30.02 27.4516 29.3401 27.9252 28.9751L39.9441 19.7243C40.4187 19.3604 41.0986 19.4491 41.4636 19.9232L62.6092 47.3947C62.9727 47.8693 62.8839 48.5492 62.4103 48.9141H62.4099Z" fill="#26292E"/>
<path d="M46.8173 32.2059C46.0873 31.2582 44.727 31.0816 43.7789 31.8111L42.4573 30.0953C41.7565 29.1843 40.7226 28.5892 39.5825 28.4409C38.4429 28.2926 37.2909 28.6031 36.3799 29.3043L35.5214 29.9653C35.207 30.1989 35.0434 30.5837 35.093 30.972C35.1431 31.3608 35.3985 31.6921 35.761 31.8389C36.124 31.9857 36.5381 31.9257 36.844 31.6812L37.702 31.0201C38.1577 30.6705 38.7335 30.5153 39.3033 30.5887C39.8736 30.6616 40.3908 30.9596 40.7399 31.4164L42.062 33.1332C41.6063 33.4833 41.3087 34.0006 41.2348 34.5709C41.1604 35.1407 41.3157 35.7164 41.6663 36.1722L50.2574 47.3311C51.3529 48.7514 53.3911 49.0172 54.8144 47.9257L54.8154 47.9247C56.2347 46.8278 56.4995 44.7891 55.407 43.3663L46.8173 32.2059ZM53.4928 46.2079C53.0187 46.5724 52.3383 46.4841 51.9733 46.01L43.3836 34.8505L45.1005 33.5285L53.6896 44.6874C54.0551 45.162 53.9669 45.8424 53.4928 46.2079Z" fill="#26292E"/>
<path d="M19.0187 15.6713C18.9726 13.6132 18.7643 11.5622 18.3954 9.53736C17.1298 3.20557 7.84338 4.28914 7.44913 4.3417C7.06133 4.38534 6.72659 4.63379 6.57336 4.99283C6.42012 5.35187 6.47169 5.76546 6.70874 6.0759C6.94578 6.38634 7.33111 6.54503 7.71792 6.49147C7.79726 6.48205 15.3956 5.58396 16.2714 9.96285C16.6165 11.88 16.8114 13.8215 16.8541 15.7695C16.989 18.7107 17.1164 21.4878 18.5312 24.3175C18.7043 24.6636 19.049 24.8913 19.4353 24.9146C19.8216 24.9379 20.1911 24.7529 20.4043 24.4301C20.6175 24.1067 20.6423 23.6946 20.4693 23.3485C19.2597 20.9299 19.1477 18.4925 19.0187 15.6713Z" fill="#26292E"/>
</g>
<circle cx="47.5" cy="47.5" r="34.5" fill="#F1AF2F" fill-opacity="0.21"/>
<defs>
<clipPath id="clip0">
<rect width="65" height="65" fill="white"/>
</clipPath>
</defs>
</svg>
