<svg width="30" height="30" viewBox="0 0 30 30" fill="none" xmlns="http://www.w3.org/2000/svg">
<path d="M14.9645 0.682373C18.9567 0.682373 22.5651 2.28567 25.1813 4.88198C27.7975 7.47812 29.4136 11.0582 29.4136 15.0196C29.4136 18.9809 27.7975 22.5612 25.1813 25.1572C22.5651 27.7533 18.9567 29.3568 14.9645 29.3568C10.9723 29.3568 7.36415 27.7533 4.74795 25.1572C2.13176 22.5612 0.515625 18.9809 0.515625 15.0196C0.515625 11.0582 2.13176 7.47795 4.74795 4.88198C7.36415 2.28567 10.9723 0.682373 14.9645 0.682373ZM24.3892 5.67578C21.9731 3.28619 18.6447 1.80144 14.9645 1.80144C11.2845 1.80144 7.95615 3.28619 5.54794 5.67578C3.13956 8.0652 1.64358 11.3678 1.64358 15.0196C1.64358 18.6715 3.13956 21.9738 5.54794 24.3712C7.95615 26.7608 11.2845 28.2374 14.9645 28.2374C18.6447 28.2374 21.9731 26.7608 24.3892 24.3712C26.7974 21.9738 28.2855 18.6713 28.2855 15.0196C28.2855 11.3678 26.7974 8.0652 24.3892 5.67578Z" fill="#B3AAA3"/>
<path fill-rule="evenodd" clip-rule="evenodd" d="M16.0685 12.0901V10.9153C16.0685 10.3516 16.4444 10.2168 16.7167 10.2168C16.9806 10.2168 18.3727 10.2168 18.3727 10.2168V7.70801H16.0926C13.5565 7.70801 12.9884 9.56561 12.9884 10.7723V12.0901H11.5161V13.8604V15.0195H13.0042C13.0042 18.3459 13.0042 22.3391 13.0042 22.3391H15.9566C15.9566 22.3391 15.9566 18.2903 15.9566 15.0195H18.1407L18.2369 13.8684L18.4129 12.0901H16.0685Z" fill="#B3AAA3"/>
</svg>
