<svg width="28" height="29" viewBox="0 0 28 29" fill="none" xmlns="http://www.w3.org/2000/svg">
<path d="M13.9523 0.494629C17.7186 0.494629 21.1302 2.0613 23.5908 4.5981C26.059 7.13475 27.5838 10.633 27.5838 14.5036C27.5838 18.3743 26.059 21.8727 23.5908 24.4091C21.1302 26.9458 17.7186 28.5126 13.9523 28.5126C10.1935 28.5126 6.78207 26.9458 4.31381 24.4091C1.84539 21.8727 0.320801 18.3743 0.320801 14.5036C0.320801 10.633 1.84539 7.13475 4.31365 4.5981C6.78207 2.0613 10.1935 0.494629 13.9523 0.494629ZM22.8436 5.37369C20.564 3.03886 17.4242 1.5881 13.9521 1.5881C10.4877 1.5881 7.34021 3.03886 5.06849 5.37369C2.79644 7.70852 1.38511 10.9355 1.38511 14.5036C1.38511 18.0719 2.79644 21.2987 5.06865 23.6413C7.34037 25.9763 10.4879 27.419 13.9523 27.419C17.4244 27.419 20.5642 25.9763 22.8438 23.6413C25.1157 21.2987 26.5195 18.0719 26.5195 14.5036C26.5195 10.9355 25.1157 7.70852 22.8436 5.37369Z" fill="#B3AAA3"/>
<path fill-rule="evenodd" clip-rule="evenodd" d="M10.4653 14.5036C10.4653 12.5256 12.0278 10.9121 13.9525 10.9121C15.8849 10.9121 17.4472 12.5256 17.4472 14.5036C17.4472 16.4893 15.8849 18.0952 13.9525 18.0952C12.0278 18.0952 10.4653 16.4893 10.4653 14.5036ZM17.5605 7.48364H10.3522C8.57847 7.48364 7.12158 8.97282 7.12158 10.8036V18.2116C7.12158 20.0341 8.57831 21.5314 10.3522 21.5314H17.5605C19.3417 21.5314 20.7908 20.0343 20.7908 18.2116V10.8036C20.7908 8.97282 19.3417 7.48364 17.5605 7.48364ZM10.3522 8.3138H17.5605C18.8965 8.3138 19.9833 9.43052 19.9833 10.8038V18.2117C19.9833 19.5845 18.8965 20.7014 17.5605 20.7014H10.3522C9.01597 20.7014 7.9292 19.5845 7.9292 18.2117V10.8038C7.92936 9.43052 9.01613 8.3138 10.3522 8.3138ZM18.2774 9.36078C17.885 9.36078 17.568 9.68657 17.568 10.0897C17.568 10.4932 17.885 10.819 18.2774 10.819C18.6698 10.819 18.987 10.4933 18.987 10.0897C18.987 9.68657 18.6698 9.36078 18.2774 9.36078ZM18.3604 14.5036C18.3604 12.0057 16.3906 9.97363 13.9525 9.97363C11.5219 9.97363 9.5446 12.0057 9.5446 14.5036C9.5446 17.0091 11.5219 19.0338 13.9525 19.0338C16.3904 19.0338 18.3604 17.0093 18.3604 14.5036Z" fill="#B3AAA3"/>
</svg>
