<svg width="84" height="84" viewBox="0 0 84 84" fill="none" xmlns="http://www.w3.org/2000/svg">
<path d="M61.9531 10.1562H30.4688V12.1875H35.1262L31.7819 15.5318L33.2181 16.9682L37.9988 12.1875H42.2355L35.8444 18.5787L37.2806 20.0151L45.1082 12.1875H49.3449L42.9537 18.5787L44.39 20.0151L52.2176 12.1875H56.4543L52.0944 16.5474L53.5306 17.9838L59.327 12.1875H60.9375V14.8137L44.985 30.7662L46.4213 32.2026L60.9375 17.6863V21.923L44.985 37.8755L46.4213 39.312L60.9375 24.7957V29.0324L43.9694 46.0005L45.4056 47.437L60.9375 31.9051V36.1418L40.2043 56.875H35.9676L43.3744 49.4682L41.9381 48.0318L33.0949 56.875H28.8582L30.1713 55.562L28.735 54.1255L25.9855 56.875H13.2031C11.8563 56.875 10.5647 56.34 9.61235 55.3877C8.66002 54.4353 8.125 53.1437 8.125 51.7969C8.125 50.4501 8.66002 49.1584 9.61235 48.2061C10.5647 47.2538 11.8563 46.7188 13.2031 46.7188H17.2656C17.535 46.7188 17.7933 46.8258 17.9838 47.0162C18.1742 47.2067 18.2812 47.465 18.2812 47.7344C18.2812 48.0037 18.1742 48.2621 17.9838 48.4525C17.7933 48.643 17.535 48.75 17.2656 48.75H12.1875C11.9181 48.75 11.6598 48.857 11.4693 49.0475C11.2789 49.2379 11.1719 49.4963 11.1719 49.7656V53.8281C11.1719 54.0975 11.2789 54.3558 11.4693 54.5463C11.6598 54.7367 11.9181 54.8437 12.1875 54.8438H17.2656C19.1505 54.8416 20.9576 54.0919 22.2904 52.7591C23.6232 51.4263 24.3729 49.6192 24.375 47.7344V9.14062C24.3729 7.25575 23.6232 5.44869 22.2904 4.11588C20.9576 2.78308 19.1505 2.03337 17.2656 2.03125H13.2031C10.2412 2.0346 7.40152 3.2127 5.30711 5.30711C3.2127 7.40152 2.0346 10.2412 2.03125 13.2031V51.7969C2.0346 54.7588 3.2127 57.5985 5.30711 59.6929C7.40152 61.7873 10.2412 62.9654 13.2031 62.9688H61.9531C62.2225 62.9687 62.4808 62.8617 62.6713 62.6713C62.8617 62.4808 62.9687 62.2225 62.9688 61.9531V11.1719C62.9687 10.9025 62.8617 10.6442 62.6713 10.4537C62.4808 10.2633 62.2225 10.1563 61.9531 10.1562ZM60.9375 56.875H57.2957L60.9375 53.2332V56.875ZM60.9375 39.0145V43.2512L54.1256 50.063L55.5619 51.4994L60.9375 46.1238V50.3605L54.423 56.875H50.1863L53.5306 53.5307L52.0944 52.0943L47.3137 56.875H43.077L60.9375 39.0145ZM4.0625 13.2031C4.06523 10.7797 5.02913 8.45635 6.74274 6.74274C8.45635 5.02913 10.7797 4.06523 13.2031 4.0625H17.2656C18.612 4.06403 19.9027 4.59954 20.8547 5.55154C21.8067 6.50354 22.3422 7.79429 22.3438 9.14062V11.2813C21.6831 10.6034 20.8935 10.0648 20.0213 9.69713C19.1491 9.32948 18.2121 9.14025 17.2656 9.14062H14.2188V11.1719H17.2656C18.612 11.1734 19.9027 11.7089 20.8547 12.6609C21.8067 13.6129 22.3422 14.9037 22.3438 16.25V17.375C21.6831 16.6972 20.8935 16.1585 20.0213 15.7909C19.1491 15.4232 18.2121 15.234 17.2656 15.2344H14.2188V17.2656H17.2656C18.612 17.2672 19.9027 17.8027 20.8547 18.7547C21.8067 19.7067 22.3422 20.9974 22.3438 22.3438V23.4688C21.6831 22.7909 20.8935 22.2523 20.0213 21.8846C19.1491 21.517 18.2121 21.3278 17.2656 21.3281H14.2188V23.3594H17.2656C18.612 23.3609 19.9027 23.8964 20.8547 24.8484C21.8067 25.8004 22.3422 27.0912 22.3438 28.4375V29.5625C21.6831 28.8847 20.8935 28.346 20.0213 27.9784C19.1491 27.6107 18.2121 27.4215 17.2656 27.4219H14.2188V29.4531H17.2656C18.612 29.4547 19.9027 29.9902 20.8547 30.9422C21.8067 31.8942 22.3422 33.1849 22.3438 34.5312V35.6562C21.6831 34.9784 20.8934 34.4398 20.0213 34.0721C19.1491 33.7045 18.2121 33.5153 17.2656 33.5156H14.2188V35.5469H17.2656C18.612 35.5484 19.9027 36.0839 20.8547 37.0359C21.8067 37.9879 22.3422 39.2787 22.3438 40.625V42.7656C21.6831 42.0878 20.8934 41.5492 20.0213 41.1815C19.1491 40.8139 18.2121 40.6246 17.2656 40.625H13.2031C11.4096 40.6254 9.64251 41.0578 8.05145 41.8856C6.46038 42.7135 5.09214 43.9124 4.0625 45.381V13.2031ZM60.9375 60.9375H13.2031C10.7789 60.9375 8.45393 59.9745 6.73973 58.2603C5.02553 56.5461 4.0625 54.2211 4.0625 51.7969C4.0625 49.3726 5.02553 47.0477 6.73973 45.3335C8.45393 43.6193 10.7789 42.6562 13.2031 42.6562H17.2656C18.6124 42.6562 19.9041 43.1913 20.8564 44.1436C21.8087 45.0959 22.3438 46.3876 22.3438 47.7344C22.3438 49.0812 21.8087 50.3728 20.8564 51.3252C19.9041 52.2775 18.6124 52.8125 17.2656 52.8125H13.2031V50.7812H17.2656C18.0737 50.7812 18.8487 50.4602 19.4201 49.8888C19.9915 49.3174 20.3125 48.5425 20.3125 47.7344C20.3125 46.9263 19.9915 46.1513 19.4201 45.5799C18.8487 45.0085 18.0737 44.6875 17.2656 44.6875H13.2031C11.3176 44.6875 9.5093 45.4365 8.17604 46.7698C6.84277 48.1031 6.09375 49.9114 6.09375 51.7969C6.09375 53.6824 6.84277 55.4907 8.17604 56.824C9.5093 58.1572 11.3176 58.9062 13.2031 58.9062H60.9375V60.9375Z" fill="#26292E"/>
<path d="M26.4062 10.1562H28.4375V12.1875H26.4062V10.1562Z" fill="#26292E"/>
<path d="M10.1562 9.14062H12.1875V11.1719H10.1562V9.14062Z" fill="#26292E"/>
<path d="M10.1562 15.2344H12.1875V17.2656H10.1562V15.2344Z" fill="#26292E"/>
<path d="M10.1562 21.3281H12.1875V23.3594H10.1562V21.3281Z" fill="#26292E"/>
<path d="M10.1562 27.4219H12.1875V29.4531H10.1562V27.4219Z" fill="#26292E"/>
<path d="M10.1562 33.5156H12.1875V35.5469H10.1562V33.5156Z" fill="#26292E"/>
<path d="M31.7754 29.7493L40.9146 20.6101L42.3507 22.0461L33.2115 31.1854L31.7754 29.7493Z" fill="#26292E"/>
<path d="M26.6975 34.8262L29.7439 31.7798L31.18 33.2159L28.1336 36.2623L26.6975 34.8262Z" fill="#26292E"/>
<path d="M26.6982 27.7179L33.8066 20.6096L35.2426 22.0457L28.1343 29.154L26.6982 27.7179Z" fill="#26292E"/>
<path d="M26.6985 20.6094L29.7449 17.563L31.181 18.9991L28.1346 22.0455L26.6985 20.6094Z" fill="#26292E"/>
<path d="M27.7136 40.922L50.054 18.5816L51.4901 20.0177L29.1497 42.3581L27.7136 40.922Z" fill="#26292E"/>
<path d="M30.759 44.9839L42.9447 32.7982L44.3808 34.2343L32.1951 46.42L30.759 44.9839Z" fill="#26292E"/>
<path d="M26.6965 49.0428L28.7274 47.0119L30.1635 48.448L28.1326 50.4789L26.6965 49.0428Z" fill="#26292E"/>
<path d="M30.7583 52.0925L42.944 39.9068L44.3801 41.3429L32.1944 53.5286L30.7583 52.0925Z" fill="#26292E"/>
<circle cx="49.5" cy="49.5" r="34.5" fill="#F1AF2F" fill-opacity="0.21"/>
</svg>
