<svg width="21" height="21" viewBox="0 0 21 21" fill="none" xmlns="http://www.w3.org/2000/svg">
<g clip-path="url(#clip0)">
<path d="M0.820297 9.67968H18.1928L15.315 6.81581C14.9939 6.49622 14.9926 5.97683 15.3122 5.65572C15.6318 5.33457 16.1512 5.33338 16.4724 5.65293L20.7586 9.91856C20.7589 9.9188 20.7591 9.91909 20.7594 9.91934C21.0797 10.2389 21.0807 10.76 20.7595 11.0807C20.7592 11.0809 20.759 11.0812 20.7587 11.0814L16.4724 15.3471C16.1514 15.6666 15.6319 15.6655 15.3123 15.3443C14.9927 15.0232 14.9939 14.5038 15.3151 14.1842L18.1928 11.3203H0.820297C0.367239 11.3203 -1.52588e-05 10.9531 -1.52588e-05 10.5C-1.52588e-05 10.0469 0.367239 9.67968 0.820297 9.67968Z" fill="#F1AF2F"/>
</g>
<defs>
<clipPath id="clip0">
<rect width="21" height="21" fill="white" transform="matrix(-1 0 0 1 21 0)"/>
</clipPath>
</defs>
</svg>
