<svg width="86" height="84" viewBox="0 0 86 84" fill="none" xmlns="http://www.w3.org/2000/svg">
<circle cx="51.5" cy="49.5" r="34.5" fill="#F1AF2F" fill-opacity="0.21"/>
<g clip-path="url(#clip0)">
<path d="M64.8835 39.4422C64.816 39.3113 64.7223 39.1958 64.6077 39.103C64.2095 38.5114 63.546 38.1544 62.8334 38.1474H36.678L41.2771 35.1957C42.8526 34.1801 44.0587 32.6835 44.7173 30.9284L44.8437 30.5897C45.3089 29.3628 46.1331 28.3051 47.2087 27.5533C47.5772 27.8821 48.0453 28.0779 48.5378 28.1092C48.5814 28.1117 48.6245 28.1132 48.6667 28.1132C49.3015 28.1171 49.903 27.833 50.3037 27.341C51.9556 25.3237 54.4788 24.5242 57.1502 23.6777C58.9548 23.1798 60.697 22.4776 62.3429 21.585C63.608 20.8342 64.514 19.6013 64.8527 18.1701C65.1919 16.7385 64.935 15.2304 64.1411 13.9921L62.4718 11.3901C61.6759 10.1523 60.4118 9.29037 58.9692 9.00274C57.5261 8.71462 56.028 9.02506 54.8185 9.86265C54.5804 10.0273 54.3592 10.2133 54.1326 10.3928C54.1177 10.4017 54.1004 10.4022 54.0855 10.4121C54.0553 10.4325 54.0389 10.4637 54.0116 10.4865C52.8457 11.4768 51.7567 12.5549 50.754 13.7114C48.8715 15.7873 47.0932 17.7481 44.571 18.4092C43.9134 18.5803 43.3788 19.0593 43.1368 19.6946C42.9602 20.1558 42.9434 20.6626 43.0892 21.1342C41.958 21.8002 40.6518 22.1087 39.3421 22.0194L38.983 21.9936C37.1135 21.8622 35.2508 22.3353 33.6708 23.343L11.1808 37.7765C11.0231 37.8806 10.8798 38.0056 10.7553 38.1474H8.69678C8.65959 38.141 8.6219 38.1365 8.58372 38.1345C6.55197 38.1553 4.64668 37.1477 3.52097 35.4561C3.34641 35.2171 3.18871 34.9661 3.04836 34.7048C1.54476 31.6336 1.99455 27.9639 4.1959 25.3465C5.51453 23.8463 7.45354 23.042 9.4466 23.1674C11.0003 23.2622 12.4077 24.1156 13.2096 25.4491C14.184 27.0762 14.55 29.6004 13.3673 31.2706C12.4697 32.5049 10.9447 33.1174 9.44263 32.8456C8.62885 32.7217 7.9554 32.1484 7.70397 31.3643C7.37865 30.3611 7.6162 29.2607 8.32584 28.4806C8.39676 28.3998 8.49941 28.3542 8.60653 28.3547C8.71414 28.3552 8.8158 28.4018 8.88622 28.4831C9.30923 29.0797 9.52297 29.7992 9.49272 30.5297C9.48677 30.8208 9.60331 31.1015 9.81407 31.3024C10.0248 31.5032 10.3105 31.6068 10.6011 31.587C11.1992 31.5731 11.6722 31.0767 11.6584 30.4791C11.6797 29.2146 11.2577 27.9827 10.4647 26.9979C9.54033 26.009 8.0035 25.9187 6.96953 26.792C5.57999 28.0973 5.05135 30.078 5.60528 31.9024C6.04614 33.4958 7.36923 34.6904 8.99929 34.9666C11.344 35.4169 13.7367 34.4658 15.1317 32.5282C16.9349 29.9817 16.3631 26.497 15.0658 24.3308C13.9093 22.3938 11.8726 21.1506 9.62116 21.0082C6.93333 20.8193 4.31343 21.9048 2.54749 23.9401C-0.214729 27.2438 -0.767174 31.8667 1.13861 35.7284C1.32458 36.076 1.53484 36.4107 1.76743 36.7291C2.14134 37.2439 2.56634 37.7189 3.03646 38.1474H2.16663C1.43963 38.1529 0.764694 38.5238 0.370445 39.1348C0.179024 39.3247 0.0654602 39.5801 0.0520706 39.8494C0.0471115 39.8722 0.0436401 39.8955 0.039177 39.9188L0.0381851 39.9248V39.9267C0.0138855 40.0542 0.000991821 40.1841 0 40.314V61.9809C0.000991821 63.177 0.970497 64.1465 2.16663 64.1475H62.8334C64.0295 64.146 64.9985 63.177 65 61.9809V40.314C64.998 40.2159 64.9896 40.1177 64.9747 40.0205C64.9995 39.8231 64.9678 39.6227 64.8835 39.4422ZM2.16663 41.0098C5.29186 41.0019 8.40469 41.3936 11.4302 42.1757L15.7943 48.9751C15.821 49.0173 15.8562 49.0515 15.8855 49.0912C8.70274 47.0376 5.49072 46.8358 2.16663 46.8164V41.0098ZM12.3516 39.5989L15.0866 37.8444L20.3527 46.0497L17.6177 47.8048L13.0444 40.6785C13.0375 40.6666 13.0296 40.6562 13.0226 40.6443L12.3516 39.5994V39.5989ZM18.7881 49.6282L24.795 45.774C28.3463 46.4395 31.9525 46.7723 35.5657 46.7683C38.9781 46.7763 42.3845 46.4921 45.7483 45.9193C46.4515 45.7914 47.1661 45.6738 47.8866 45.5667C52.9856 44.6706 57.9898 43.2999 62.8334 41.4725V47.3892C55.9997 45.1988 46.6062 48.8864 46.1623 49.0654C46.0334 49.1209 33.0857 54.4579 19.8265 50.2789C19.3157 50.1177 18.8377 49.9719 18.3586 49.8256C18.5084 49.776 18.6527 49.7101 18.7881 49.6287V49.6282ZM59.5564 40.314C55.6486 41.6743 51.6367 42.7147 47.5603 43.4239C46.8239 43.5345 46.087 43.655 45.3649 43.7864C39.4601 44.7787 33.4378 44.8615 27.5077 44.0329L33.3019 40.314H59.5564ZM51.726 15.8602L53.2653 18.1657C53.5975 18.6636 54.27 18.798 54.7679 18.4657C55.2658 18.1334 55.4002 17.461 55.0679 16.9631L53.2315 14.2123C53.6432 13.7694 54.0587 13.3524 54.4802 12.9527L56.517 15.9995C56.7277 16.3308 57.1016 16.5217 57.4934 16.4984C57.8857 16.4756 58.2343 16.2425 58.4054 15.889C58.5765 15.5354 58.5427 15.1173 58.3176 14.7955L56.1668 11.577C56.6841 11.2448 57.2851 11.0667 57.9 11.0642C58.1178 11.0642 58.335 11.0861 58.5487 11.1292C59.4146 11.2993 60.1733 11.8165 60.6474 12.5609L62.3171 15.1634C62.7937 15.9073 62.9479 16.8128 62.7441 17.6727C62.5403 18.5327 61.9958 19.2726 61.236 19.7228C59.7319 20.5297 58.1416 21.164 56.4951 21.6133C53.6397 22.5178 50.6865 23.4536 48.6325 25.9316L48.3612 25.5116L48.3577 25.5027L48.3508 25.4957L45.4735 21.0519C45.4616 21.0152 45.4477 20.979 45.4319 20.9443C45.4056 20.9135 45.3778 20.8848 45.3485 20.8575L45.1199 20.5049C47.9387 19.7665 49.901 17.8473 51.726 15.8602ZM34.8407 25.1665C36.0249 24.4072 37.4234 24.0521 38.8263 24.1548L39.1859 24.1806C40.93 24.2946 42.6686 23.8835 44.1777 23.0008L45.965 25.7858C44.5323 26.7881 43.4338 28.198 42.8135 29.8325L42.687 30.1717C42.1936 31.4883 41.289 32.6106 40.1073 33.3718L22.1766 44.8794L16.9101 36.6741L34.8407 25.1665ZM2.16663 56.6231C5.00572 56.9047 7.78976 57.5891 10.4359 58.6548C11.7734 59.2752 13.0424 60.0324 14.2232 60.9152C14.7459 61.2737 15.274 61.6342 15.8072 61.9814H2.16663V56.6231ZM37.8256 61.9809C38.3984 61.6084 39.0073 61.1805 39.6649 60.6692C43.5662 57.6342 46.5169 57.6481 46.5432 57.6466C46.5987 57.6456 46.6587 57.6461 46.7153 57.6392C51.2762 57.354 55.7602 58.9191 59.1532 61.9809H37.8256ZM62.2194 61.9809C58.2735 57.5048 52.4797 55.1046 46.5248 55.48C45.9035 55.4844 42.5615 55.6709 38.3344 58.9583C34.687 61.7949 32.7946 61.9759 31.7363 61.9809H31.6887C31.6336 61.9809 31.5791 61.9809 31.5285 61.9804H31.4164L31.414 61.9809H20.7281C18.8193 61.3357 17.034 60.3712 15.4481 59.1279C14.1364 58.1485 12.7221 57.3139 11.2304 56.6394C8.33279 55.4686 5.27897 54.7297 2.16663 54.446V48.9831C5.97572 49.0059 9.41338 49.2682 19.1739 52.3448C22.923 53.5058 26.8273 54.0865 30.7519 54.0671C36.3007 54.0686 41.8028 53.0525 46.9855 51.0699C47.0862 51.0297 56.7828 47.233 62.8334 49.7031V61.9809H62.2194Z" fill="#26292E"/>
<path d="M22.2684 12.2391C21.7125 12.435 21.4149 13.0385 21.5984 13.5984C21.7819 14.1583 22.3795 14.4687 22.9428 14.2976C24.3691 13.8945 25.6123 13.0122 26.4638 11.7997C27.2439 10.489 26.8392 8.79551 25.5503 7.97924C23.5335 6.63086 20.9572 7.26513 19.3599 8.21876C17.7318 9.2334 16.8387 11.099 17.0693 13.0033C17.4303 16.6339 20.494 19.3941 24.1424 19.3748C26.8412 19.2756 29.3892 18.1042 31.2211 16.1201C33.0361 14.1682 33.7616 11.4412 33.1571 8.8451C32.4494 5.74268 30.3071 3.16196 27.3882 1.89491C22.6284 -0.0763336 17.157 0.897635 13.3698 4.39033C13.0355 4.72011 12.7251 5.07221 12.439 5.44464C10.3249 7.97577 9.67772 11.4238 10.7305 14.5496C10.8669 14.9165 11.1907 15.1809 11.5776 15.2418C11.9639 15.3028 12.3532 15.1506 12.5962 14.8436C12.8387 14.5367 12.8967 14.1226 12.7479 13.7606C11.9926 11.3415 12.5233 8.70475 14.1558 6.76674C14.3819 6.47167 14.6279 6.19297 14.8922 5.93162C18.0432 3.03997 22.5868 2.24155 26.5342 3.88599C28.8124 4.87236 30.4856 6.88377 31.0396 9.30382C31.4864 11.2121 30.9558 13.218 29.6232 14.6557C28.0011 16.4157 25.0619 17.775 22.5897 16.9681C20.7598 16.3547 19.4501 14.738 19.229 12.8208C19.0856 11.7432 19.5692 10.6785 20.4752 10.0774C21.6188 9.29836 23.0896 9.18381 24.3403 9.77691C24.503 9.85973 24.6235 10.0075 24.6721 10.1841C24.7207 10.3606 24.6929 10.549 24.5952 10.7043C24.0125 11.461 23.1933 12.0016 22.2684 12.2391Z" fill="#26292E"/>
</g>
<defs>
<clipPath id="clip0">
<rect width="65" height="65" fill="white"/>
</clipPath>
</defs>
</svg>
