<svg width="21" height="21" viewBox="0 0 21 21" fill="none" xmlns="http://www.w3.org/2000/svg">
<g clip-path="url(#clip0)">
<path d="M20.9979 16.9215C20.9687 16.1092 20.6303 15.3512 20.0452 14.787C18.8996 13.6823 17.9397 13.0446 17.0245 12.7802C15.7635 12.4157 14.5954 12.7471 13.5529 13.7652C13.5513 13.7667 13.5498 13.7683 13.5482 13.7698L12.4392 14.8706C11.746 14.4799 10.3983 13.622 8.94213 12.1659L8.83418 12.058C7.3778 10.6017 6.51996 9.25363 6.12961 8.56129L7.23047 7.45219C7.23203 7.45063 7.23359 7.44907 7.23515 7.44747C8.25319 6.4051 8.5846 5.23706 8.22018 3.97587C7.95567 3.06068 7.318 2.10084 6.21328 0.955229C5.64915 0.370223 4.89115 0.0318446 4.07883 0.00255942C3.26602 -0.0267668 2.48607 0.256159 1.88117 0.799124L1.85763 0.820288C1.84672 0.830091 1.83606 0.840222 1.82564 0.850598C0.62146 2.05478 -0.00977043 3.74056 0.000114334 5.72576C0.0169718 9.09814 1.87043 12.9548 4.95804 16.0423C5.54026 16.6245 6.20196 17.2007 6.92474 17.7549C7.28424 18.0306 7.79915 17.9626 8.07482 17.6031C8.35053 17.2436 8.28252 16.7286 7.92298 16.453C7.25709 15.9424 6.64985 15.4139 6.11813 14.8823C3.32923 12.0934 1.65542 8.6674 1.6407 5.71759C1.63311 4.1887 2.09302 2.91258 2.97088 2.02557L2.97715 2.01991C3.5734 1.4847 4.47611 1.51727 5.03236 2.09407C7.15611 4.29653 7.00234 5.33631 6.0639 6.29862L4.54329 7.83064C4.30483 8.07091 4.23842 8.43299 4.37611 8.74225C4.41471 8.82896 5.34859 10.8926 7.67438 13.2184L7.78238 13.3262C10.1079 15.6517 12.1715 16.5856 12.2582 16.6242C12.5674 16.762 12.9296 16.6955 13.1698 16.457L14.7019 14.9364C15.6643 13.9979 16.7041 13.8442 18.9064 15.968C19.4832 16.5241 19.5158 17.4269 18.9807 18.0231L18.9749 18.0295C18.0951 18.9002 16.8326 19.3598 15.3204 19.3598C15.3079 19.3598 15.2954 19.3598 15.2829 19.3597C14.0741 19.3536 12.6744 19.0223 11.2351 18.4015C10.8192 18.222 10.3364 18.4138 10.157 18.8298C9.97757 19.2458 10.1693 19.7285 10.5853 19.9079C12.249 20.6255 13.8267 20.993 15.2747 21.0003C15.2901 21.0003 15.3054 21.0004 15.3208 21.0004C17.286 21.0004 18.955 20.3696 20.1499 19.1748C20.1603 19.1644 20.1704 19.1537 20.1802 19.1428L20.2015 19.1191C20.7444 18.5143 21.0273 17.7338 20.9979 16.9215Z" fill="white"/>
</g>
<defs>
<clipPath id="clip0">
<rect width="21" height="21" fill="white"/>
</clipPath>
</defs>
</svg>
