<svg width="86" height="80" viewBox="0 0 86 80" fill="none" xmlns="http://www.w3.org/2000/svg">
<g clip-path="url(#clip0)">
<path d="M31.9001 51.7H34.1001V53.9H31.9001V51.7Z" fill="#26292E"/>
<path d="M37.667 50.2225L39.2225 48.667L40.7779 50.2225L39.2225 51.7779L37.667 50.2225Z" fill="#26292E"/>
<path d="M40.7 42.9H42.9V45.1H40.7V42.9Z" fill="#26292E"/>
<path d="M23.1001 42.9H25.3001V45.1H23.1001V42.9Z" fill="#26292E"/>
<path d="M25.2209 50.2225L26.777 48.667L28.3324 50.2225L26.777 51.7785L25.2209 50.2225Z" fill="#26292E"/>
<path d="M55 60.5H57.2V62.7H55V60.5Z" fill="#26292E"/>
<path d="M60.7668 59.023L62.3223 57.4675L63.8783 59.023L62.3223 60.579L60.7668 59.023Z" fill="#26292E"/>
<path d="M63.8 51.7H66V53.9H63.8V51.7Z" fill="#26292E"/>
<path d="M46.2 51.7H48.4V53.9H46.2V51.7Z" fill="#26292E"/>
<path d="M48.321 59.0224L49.8771 57.4664L51.4325 59.0224L49.8771 60.5779L48.321 59.0224Z" fill="#26292E"/>
<path d="M8.80005 56.1H11V58.3H8.80005V56.1Z" fill="#26292E"/>
<path d="M2.12158 54.6224L3.67705 53.0664L5.23252 54.6224L3.67705 56.1779L2.12158 54.6224Z" fill="#26292E"/>
<path d="M0 47.3H2.2V49.5H0V47.3Z" fill="#26292E"/>
<path d="M17.5999 47.3H19.7999V49.5H17.5999V47.3Z" fill="#26292E"/>
<path d="M14.5669 54.623L16.1224 53.0675L17.6784 54.623L16.1224 56.179L14.5669 54.623Z" fill="#26292E"/>
<path d="M64.9 3.30005H1.1C0.492529 3.30005 0 3.79258 0 4.40005V8.80005C0 9.40752 0.492529 9.90005 1.1 9.90005H8.8V38.5H7.7C7.09253 38.5 6.6 38.9926 6.6 39.6V44V44.0242C4.704 45.4433 3.92896 47.9172 4.67715 50.1645C5.4248 52.4112 7.52705 53.9274 9.8957 53.9274C12.2638 53.9274 14.3666 52.4112 15.1143 50.1645C15.8619 47.9172 15.0874 45.4433 13.1914 44.0242C13.1914 44.0156 13.1914 44.0086 13.1914 44V39.6C13.1914 38.9926 12.6989 38.5 12.0914 38.5H11V9.90005H31.9V34.1H30.8C30.1925 34.1 29.7 34.5926 29.7 35.2001V39.6V39.6242C27.804 41.0433 27.029 43.5172 27.7771 45.7645C28.5248 48.0112 30.6271 49.5274 32.9957 49.5274C35.3638 49.5274 37.4666 48.0112 38.2143 45.7645C38.9619 43.5172 38.1874 41.0433 36.2914 39.6242C36.2914 39.6156 36.2914 39.6086 36.2914 39.6V35.2001C36.2914 34.5926 35.7989 34.1 35.1914 34.1H34.1V9.90005H55V42.9001H53.9C53.2925 42.9001 52.8 43.3926 52.8 44V48.4001V48.4242C50.904 49.8433 50.129 52.3172 50.8771 54.5645C51.6248 56.8112 53.7271 58.3274 56.0957 58.3274C58.4638 58.3274 60.5666 56.8112 61.3143 54.5645C62.0619 52.3172 61.2874 49.8433 59.3914 48.4242C59.3914 48.4156 59.3914 48.4086 59.3914 48.4001V44C59.3914 43.3926 58.8989 42.9001 58.2914 42.9001H57.2V9.90005H64.9C65.5075 9.90005 66 9.40752 66 8.80005V4.40005C66 3.79258 65.5075 3.30005 64.9 3.30005ZM9.9 51.7001C8.07759 51.7001 6.6 50.2225 6.6 48.4001C6.6 46.5776 8.07759 45.1 9.9 45.1C11.7224 45.1 13.2 46.5776 13.2 48.4001C13.2 50.2225 11.7224 51.7001 9.9 51.7001ZM8.8 42.9001V40.7001H11V42.9001H8.8ZM33 47.3C31.1776 47.3 29.7 45.8225 29.7 44C29.7 42.1776 31.1776 40.7001 33 40.7001C34.8224 40.7001 36.3 42.1776 36.3 44C36.3 45.8225 34.8224 47.3 33 47.3ZM31.9 38.5V36.3H34.1V38.5H31.9ZM56.1 56.1001C54.2776 56.1001 52.8 54.6225 52.8 52.8C52.8 50.9776 54.2776 49.5 56.1 49.5C57.9224 49.5 59.4 50.9776 59.4 52.8C59.4 54.6225 57.9224 56.1001 56.1 56.1001ZM55 47.3V45.1H57.2V47.3H55ZM63.8 7.70005H2.2V5.50005H63.8V7.70005Z" fill="#26292E"/>
</g>
<circle cx="51.5" cy="45.5" r="34.5" fill="#F1AF2F" fill-opacity="0.21"/>
<defs>
<clipPath id="clip0">
<rect width="66" height="66" fill="white"/>
</clipPath>
</defs>
</svg>
