<svg width="86" height="79" viewBox="0 0 86 79" fill="none" xmlns="http://www.w3.org/2000/svg">
<path d="M7.87939 14.1112L7.87939 60.9789H40.0365V52.8993H22.9528L22.9528 14.1112H7.87939ZM20.9422 16.1218L20.9422 54.9099H38.0261V58.9683H9.89002L9.89002 16.1218H20.9422Z" fill="#26292E"/>
<path d="M20.9423 10.0902H3.8584L3.8584 65H44.0579V54.91H61.1417L61.1417 0.000167847H20.9423V10.0902ZM59.1311 2.01062L59.1311 52.8994H42.0472V62.9894H5.86902L5.86902 12.1006H22.9529V2.01062H59.1311Z" fill="#26292E"/>
<path d="M24.9634 14.1113L24.9634 50.8888H40.0366H42.0473H57.1205V4.02129H24.9634V12.1008V14.1113ZM55.1101 6.03174V48.8782H26.974L26.974 6.03174H55.1101Z" fill="#26292E"/>
<circle cx="51.5" cy="44.5" r="34.5" fill="#F1AF2F" fill-opacity="0.21"/>
</svg>
