<svg width="15" height="15" viewBox="0 0 15 15" fill="none" xmlns="http://www.w3.org/2000/svg">
<g clip-path="url(#clip0)">
<path d="M14.9985 12.087C14.9776 11.5067 14.7359 10.9653 14.318 10.5623C13.4997 9.77324 12.8141 9.31773 12.1604 9.12882C11.2596 8.86849 10.4253 9.10521 9.68065 9.83242C9.67953 9.8335 9.67842 9.83461 9.67731 9.83573L8.88512 10.622C8.39003 10.3429 7.42734 9.73014 6.38724 8.69004L6.31013 8.61299C5.26986 7.57275 4.65711 6.60988 4.37829 6.11535L5.16462 5.32313C5.16574 5.32202 5.16685 5.3209 5.16796 5.31976C5.89514 4.57521 6.13186 3.74089 5.87156 2.84004C5.68262 2.18634 5.22714 1.50074 4.43806 0.682446C4.03511 0.264585 3.49368 0.0228856 2.91345 0.00196766C2.33287 -0.0189796 1.77577 0.18311 1.34369 0.570942L1.32688 0.58606C1.31909 0.593061 1.31147 0.600298 1.30403 0.60771C0.4439 1.46784 -0.00697888 2.67197 8.16674e-05 4.08997C0.0121227 6.49881 1.33602 9.25354 3.54146 11.459C3.95733 11.8748 4.42997 12.2864 4.94624 12.6822C5.20303 12.8791 5.57082 12.8306 5.76773 12.5738C5.96466 12.317 5.91609 11.9492 5.65927 11.7523C5.18364 11.3876 4.7499 11.0101 4.37009 10.6304C2.37802 8.63831 1.18244 6.19114 1.17193 4.08414C1.16651 2.99206 1.49501 2.08055 2.12205 1.44698L2.12654 1.44293C2.55243 1.06064 3.19722 1.0839 3.59454 1.4959C5.11151 3.06909 5.00167 3.81179 4.33136 4.49916L3.24521 5.59345C3.07488 5.76507 3.02744 6.02371 3.12579 6.2446C3.15336 6.30654 3.82042 7.78055 5.4817 9.44183L5.55884 9.51885C7.21992 11.18 8.69396 11.847 8.75589 11.8746C8.97673 11.973 9.23542 11.9255 9.40701 11.7552L10.5013 10.669C11.1888 9.99865 11.9315 9.88887 13.5046 11.4058C13.9166 11.8031 13.9399 12.4479 13.5576 12.8738L13.5535 12.8784C12.9251 13.5003 12.0233 13.8285 10.9431 13.8285C10.9342 13.8285 10.9253 13.8285 10.9164 13.8285C10.053 13.8242 9.05314 13.5875 8.02508 13.144C7.72801 13.0158 7.38316 13.1528 7.25501 13.45C7.12684 13.7472 7.2638 14.0919 7.56096 14.2201C8.7493 14.7327 9.87623 14.9952 10.9105 15.0004C10.9215 15.0004 10.9324 15.0004 10.9434 15.0004C12.3471 15.0004 13.5393 14.5499 14.3928 13.6964C14.4002 13.689 14.4074 13.6814 14.4144 13.6736L14.4296 13.6567C14.8174 13.2246 15.0195 12.6672 14.9985 12.087Z" fill="white"/>
</g>
<defs>
<clipPath id="clip0">
<rect width="15" height="15" fill="white"/>
</clipPath>
</defs>
</svg>
