<svg width="25" height="25" viewBox="0 0 25 25" fill="none" xmlns="http://www.w3.org/2000/svg">
<g clip-path="url(#clip0)">
<path d="M12.5009 0C5.60842 0 0.000976562 5.60732 0.000976562 12.4996C0.000976562 19.3924 5.60842 25 12.5009 25C19.3932 25 25.0005 19.3923 25.0005 12.4996C25.0005 5.60732 19.3932 0 12.5009 0ZM12.5009 23.2081C6.59645 23.2081 1.79283 18.4043 1.79283 12.4996C1.79283 6.59535 6.59645 1.79186 12.5009 1.79186C18.4051 1.79186 23.2086 6.59535 23.2086 12.4996C23.2086 18.4043 18.4051 23.2081 12.5009 23.2081Z" fill="white"/>
<path d="M18.9275 12.2904H13.0533V5.86932C13.0533 5.37453 12.6523 4.97339 12.1574 4.97339C11.6626 4.97339 11.2615 5.37453 11.2615 5.86932V13.1863C11.2615 13.6811 11.6626 14.0822 12.1574 14.0822H18.9275C19.4224 14.0822 19.8234 13.6811 19.8234 13.1863C19.8234 12.6915 19.4223 12.2904 18.9275 12.2904Z" fill="white"/>
</g>
<defs>
<clipPath id="clip0">
<rect width="25" height="25" fill="white"/>
</clipPath>
</defs>
</svg>
