<svg width="29" height="29" viewBox="0 0 29 29" fill="none" xmlns="http://www.w3.org/2000/svg">
<path d="M14.5914 0.565186C18.4753 0.565186 22.0003 2.12823 24.5507 4.65893C27.0932 7.18947 28.6765 10.6796 28.6765 14.5412C28.6765 18.403 27.0932 21.8931 24.5507 24.4235C22.0003 26.9543 18.4753 28.5176 14.5914 28.5176C10.6997 28.5176 7.17444 26.9543 4.62435 24.4235C2.08156 21.8931 0.498535 18.403 0.498535 14.5412C0.498535 10.6796 2.08156 7.18947 4.62435 4.65893C7.17444 2.12823 10.6997 0.565186 14.5914 0.565186ZM23.7708 5.43287C21.4234 3.09573 18.1711 1.65635 14.5914 1.65635C11.0038 1.65635 7.75153 3.09573 5.40398 5.43287C3.05661 7.76226 1.60601 10.9815 1.60601 14.5412C1.60601 18.1011 3.05661 21.3206 5.40398 23.6497C7.75153 25.9868 11.0037 27.4262 14.5914 27.4262C18.1711 27.4262 21.4234 25.9868 23.7708 23.6497C26.1185 21.3206 27.5769 18.1011 27.5769 14.5412C27.5769 10.9815 26.1185 7.76226 23.7708 5.43287Z" fill="#B3AAA3"/>
<path fill-rule="evenodd" clip-rule="evenodd" d="M20.8147 13.1094C21.7819 12.885 21.7819 12.1653 21.7819 12.1653H19.3877C17.9371 10.7337 16.5096 10.2539 14.5834 10.2539C12.6647 10.2539 11.2374 10.7337 9.78681 12.1653H7.39274C7.39274 12.1653 7.39274 12.885 8.35964 13.1094C8.17238 13.3648 7.98528 13.6745 7.81363 14.0225C7.57203 14.4947 7.39258 15.0363 7.39258 15.5008C7.39258 17.4584 8.7807 18.8203 10.754 18.8203C11.8692 18.8203 12.969 18.2012 13.6318 17.4043L14.5833 18.8203L15.5425 17.4043C16.2053 18.2012 17.305 18.8203 18.4201 18.8203C20.3933 18.8203 21.7816 17.4584 21.7816 15.5008C21.7816 15.0594 21.6101 14.5486 21.3836 14.0845C21.2125 13.7208 21.0098 13.3727 20.8147 13.1094ZM10.7542 17.8765C9.4284 17.8765 8.35981 16.8009 8.35981 15.501C8.35981 14.7966 8.67186 14.162 9.15523 13.7361C9.57628 13.3495 10.1381 13.1094 10.7542 13.1094C11.1284 13.1094 11.4715 13.21 11.799 13.3493C12.5948 13.744 13.1483 14.5564 13.1483 15.5008C13.1483 16.8009 12.08 17.8765 10.7542 17.8765ZM14.5834 16.9245C14.5834 15.5475 13.9517 14.1851 13.0389 13.272C12.3761 12.5986 11.5571 12.1655 10.754 12.1655C10.754 12.1655 12.189 10.7337 14.5834 10.7337C16.9775 10.7337 18.4204 12.1655 18.4204 12.1655C17.6018 12.1655 16.7827 12.5986 16.1199 13.2797C15.2228 14.2006 14.5834 15.5628 14.5834 16.9245ZM18.4204 15.021C18.1554 15.021 17.9371 15.2299 17.9371 15.4931C17.9371 15.7562 18.1554 15.9653 18.4204 15.9653C18.6856 15.9653 18.904 15.7562 18.904 15.4931C18.904 15.2299 18.6856 15.021 18.4204 15.021ZM18.4204 14.0692C17.6252 14.0692 16.9775 14.7112 16.9775 15.501C16.9775 16.2902 17.6252 16.9245 18.4204 16.9245C19.216 16.9245 19.8556 16.2902 19.8556 15.501C19.8556 14.7114 19.216 14.0692 18.4204 14.0692ZM18.4204 16.4451C17.8902 16.4451 17.4612 16.0193 17.4612 15.501C17.4612 14.9745 17.8902 14.5488 18.4204 14.5488C18.9508 14.5488 19.3877 14.9745 19.3877 15.501C19.3877 16.0193 18.9508 16.4451 18.4204 16.4451ZM10.7542 15.021C10.489 15.021 10.2707 15.2299 10.2707 15.4931C10.2707 15.7562 10.4892 15.9653 10.7542 15.9653C11.0191 15.9653 11.2376 15.7562 11.2376 15.4931C11.2376 15.2299 11.0191 15.021 10.7542 15.021ZM10.7542 14.0692C9.95862 14.0692 9.31125 14.7112 9.31125 15.501C9.31125 16.2902 9.95862 16.9245 10.7542 16.9245C11.5495 16.9245 12.1892 16.2902 12.1892 15.501C12.1892 14.7114 11.5495 14.0692 10.7542 14.0692ZM10.7542 16.4451C10.2238 16.4451 9.78681 16.0193 9.78681 15.501C9.78681 14.9745 10.2238 14.5488 10.7542 14.5488C11.2844 14.5488 11.7135 14.9745 11.7135 15.501C11.7133 16.0193 11.2843 16.4451 10.7542 16.4451ZM18.4204 17.8765C17.0946 17.8765 16.0262 16.8009 16.0262 15.501C16.0262 14.5721 16.5566 13.7674 17.3364 13.3727C17.6639 13.2102 18.0228 13.1096 18.4204 13.1096C19.0758 13.1096 19.6529 13.3727 20.0819 13.7829C20.5418 14.2242 20.8148 14.8199 20.8148 15.5011C20.8147 16.8009 19.7463 17.8765 18.4204 17.8765Z" fill="#B3AAA3"/>
</svg>
